<svg id="Layer_1" data-name="Layer 1" xmlns="http://www.w3.org/2000/svg" viewBox="0 0 771.58 692.41"><defs><style>.cls-1{fill:#fff;}</style></defs><title>cryptowhite</title><g id="_Group_" data-name="&lt;Group&gt;"><path id="_Path_" data-name="&lt;Path&gt;" class="cls-1" d="M816.55,102c-5.56-1.08-10,2.49-11.24,5.51L756.07,230.84l-15.59-39.78c-1.63-4.72-6.09-12.72-16.18-12.72S710,185.7,708,191.31L692.4,230.49l-34.8-89.83c-1.63-4.72-6.85-13.17-16.13-13.17h0c-1.91,0-11.38,1.08-16.39,13.42l-9.32,24c-.93,2.57-1.76,6.35.69,10.27a11.07,11.07,0,0,0,8.59,5.24c5.6.35,9.75-2.87,11.55-7.76l4.66-11.91,35.82,90.57c.45,1.12,4.57,11,14.63,11.35,6.88,0,13.25-2.81,16.64-11.55l15.88-40.58,15.12,37.92s4.82,14.2,17.88,14.2c3.52,0,11.61-1.38,15.81-14l51.22-133.33C826.43,109.93,822.71,103.15,816.55,102Z" transform="translate(-268 -63.59)"/><g id="_Group_2" data-name="&lt;Group&gt;"><path id="_Path_2" data-name="&lt;Path&gt;" class="cls-1" d="M705.76,320.09c-71.39,0-129.48-57.53-129.48-128.25S634.37,63.59,705.76,63.59a129.85,129.85,0,0,1,107.09,56.14,9.85,9.85,0,0,1-2.64,13.77,10.06,10.06,0,0,1-13.91-2.61,109.79,109.79,0,0,0-90.54-47.46c-60.35,0-109.46,48.63-109.46,108.41s49.11,108.42,109.46,108.42a110,110,0,0,0,89.61-46.13,10.08,10.08,0,0,1,14-2.41,9.86,9.86,0,0,1,2.43,13.82A130.12,130.12,0,0,1,705.76,320.09Z" transform="translate(-268 -63.59)"/></g></g><g id="_Group_3" data-name="&lt;Group&gt;"><path id="_Path_3" data-name="&lt;Path&gt;" class="cls-1" d="M455.59,585.7a8,8,0,0,0-8.78,4.31l-38.44,96.31L396.2,655.26c-1.27-3.69-4.76-9.93-12.63-9.93s-11.14,5.75-12.77,10.12L358.66,686l-27.17-70.17c-1.27-3.69-5.35-10.32-12.59-10.32h0c-1.49,0-8.88.88-12.8,10.52l-7.27,18.78a8.78,8.78,0,0,0,.54,8,8.64,8.64,0,0,0,6.71,4.1,8.74,8.74,0,0,0,9-6.05l3.64-9.3,28,70.71c.35.87,3.56,8.55,11.42,8.86,5.37,0,10.34-2.2,13-9l12.4-31.69,11.8,29.61s3.76,11.08,14,11.08c2.75,0,9.07-1.07,12.34-11l40-104.09C463.3,591.92,460.39,586.63,455.59,585.7Z" transform="translate(-268 -63.59)"/><g id="_Group_4" data-name="&lt;Group&gt;"><path id="_Path_4" data-name="&lt;Path&gt;" class="cls-1" d="M369.09,756C313.35,756,268,711.08,268,655.87s45.35-100.13,101.09-100.13a101.37,101.37,0,0,1,83.61,43.83,7.69,7.69,0,0,1-2.06,10.75,7.85,7.85,0,0,1-10.86-2,85.73,85.73,0,0,0-70.69-37c-47.12,0-85.46,38-85.46,84.64s38.34,84.65,85.46,84.65a85.9,85.9,0,0,0,70-36,7.86,7.86,0,0,1,10.89-1.88,7.7,7.7,0,0,1,1.9,10.79A101.58,101.58,0,0,1,369.09,756Z" transform="translate(-268 -63.59)"/></g></g><g id="_Group_5" data-name="&lt;Group&gt;"><path id="_Compound_Path_" data-name="&lt;Compound Path&gt;" class="cls-1" d="M536.47,410.67a22.6,22.6,0,0,1-7.5-1.19,16.05,16.05,0,0,1-5.9-3.53,15.86,15.86,0,0,1-3.82-5.86,24.46,24.46,0,0,1-.07-15.88,16.56,16.56,0,0,1,3.77-6,15.93,15.93,0,0,1,5.88-3.71,21.8,21.8,0,0,1,7.66-1.3,30.49,30.49,0,0,1,4.14.25,27.47,27.47,0,0,1,3.41.67,22.33,22.33,0,0,1,3,1c.89.38,1.67.74,2.34,1.06V385h-1.08c-.45-.39-1-.84-1.72-1.37a22,22,0,0,0-2.36-1.57,16.06,16.06,0,0,0-2.91-1.3,10.45,10.45,0,0,0-3.35-.53,11.19,11.19,0,0,0-3.76.62,9.16,9.16,0,0,0-3.3,2,10,10,0,0,0-2.34,3.65,15.13,15.13,0,0,0-.89,5.5,14.59,14.59,0,0,0,1,5.66,9.78,9.78,0,0,0,2.43,3.57,8.86,8.86,0,0,0,3.32,1.9,12.19,12.19,0,0,0,3.62.57,11.61,11.61,0,0,0,3.39-.51,13.26,13.26,0,0,0,3.09-1.37,19.13,19.13,0,0,0,2.22-1.5c.69-.53,1.25-1,1.69-1.37h1v8.62c-.91.41-1.79.78-2.62,1.14a21.13,21.13,0,0,1-2.61.92,29.8,29.8,0,0,1-3.35.77A26.64,26.64,0,0,1,536.47,410.67Z" transform="translate(-268 -63.59)"/><path id="_Compound_Path_2" data-name="&lt;Compound Path&gt;" class="cls-1" d="M591.29,410H579.83l-9.9-13.22h-4.35V410h-9.34V373.92H572a36.87,36.87,0,0,1,5.55.36,12.1,12.1,0,0,1,4.35,1.57,9.56,9.56,0,0,1,3.27,3.14,9,9,0,0,1,1.21,4.83,10.69,10.69,0,0,1-1.87,6.51,14.09,14.09,0,0,1-5.34,4.19Zm-14.64-25a4.54,4.54,0,0,0-.56-2.33,3.76,3.76,0,0,0-1.93-1.52,7,7,0,0,0-2.23-.47c-.84-.06-1.83-.09-2.95-.09h-3.4v9.71h2.88a26.45,26.45,0,0,0,3.77-.22,5.31,5.31,0,0,0,2.54-1,4.8,4.8,0,0,0,1.43-1.66A5.52,5.52,0,0,0,576.65,385Z" transform="translate(-268 -63.59)"/><path id="_Compound_Path_3" data-name="&lt;Compound Path&gt;" class="cls-1" d="M627.42,373.92,614,396v14h-9.38V396.46L591,373.92h10.68l7.85,13.9,7.59-13.9Z" transform="translate(-268 -63.59)"/><path id="_Compound_Path_4" data-name="&lt;Compound Path&gt;" class="cls-1" d="M662.33,385.3a13.54,13.54,0,0,1-.86,4.73,10.53,10.53,0,0,1-2.44,3.89,15.06,15.06,0,0,1-4.85,3.22,17.93,17.93,0,0,1-6.67,1.09h-5.84V410h-9.38V373.92h15.44a25,25,0,0,1,5.86.59,14.09,14.09,0,0,1,4.22,1.78,9.66,9.66,0,0,1,3.36,3.66A11.46,11.46,0,0,1,662.33,385.3Zm-9.71.2a4.2,4.2,0,0,0-.83-2.62,4.51,4.51,0,0,0-1.93-1.53,8.71,8.71,0,0,0-2.86-.64c-.93,0-2.16-.06-3.71-.06h-1.62v10.77h2.69a21.49,21.49,0,0,0,3.95-.29,5.55,5.55,0,0,0,2.6-1.16,4.37,4.37,0,0,0,1.31-1.85A7.44,7.44,0,0,0,652.62,385.5Z" transform="translate(-268 -63.59)"/><path id="_Compound_Path_5" data-name="&lt;Compound Path&gt;" class="cls-1" d="M697.45,380.89H686.09V410H676.7V380.89H665.33v-7h32.12Z" transform="translate(-268 -63.59)"/><path id="_Compound_Path_6" data-name="&lt;Compound Path&gt;" class="cls-1" d="M738.49,392q0,8.61-5,13.69t-13.79,5.07q-8.78,0-13.76-5.07T701,392q0-8.7,5-13.74t13.76-5.05q8.76,0,13.76,5.05T738.49,392Zm-12.44,9.12a10.57,10.57,0,0,0,2-3.88,18.78,18.78,0,0,0,.66-5.27,17.48,17.48,0,0,0-.76-5.52,10.52,10.52,0,0,0-2-3.68,7.39,7.39,0,0,0-2.87-2.11,9.07,9.07,0,0,0-3.38-.65,9,9,0,0,0-3.36.63,7.79,7.79,0,0,0-2.9,2.08,10.13,10.13,0,0,0-2,3.74,20.49,20.49,0,0,0,0,11,10.92,10.92,0,0,0,2,3.69,7.69,7.69,0,0,0,2.86,2.11,9,9,0,0,0,3.45.68,8.77,8.77,0,0,0,3.44-.69A7.44,7.44,0,0,0,726.05,401.08Z" transform="translate(-268 -63.59)"/><path id="_Compound_Path_7" data-name="&lt;Compound Path&gt;" class="cls-1" d="M788.26,373.92,778.8,410h-5.45L765.7,380,758.22,410h-5.33l-9.63-36.05h5l7.65,30,7.53-30h4.92l7.6,30.26,7.6-30.26Z" transform="translate(-268 -63.59)"/><path id="_Compound_Path_8" data-name="&lt;Compound Path&gt;" class="cls-1" d="M822.87,410h-5.15l-3.57-10.05H798.41L794.84,410h-4.92l13.25-36.05h6.46ZM812.66,395.8l-6.38-17.69-6.41,17.69Z" transform="translate(-268 -63.59)"/><path id="_Compound_Path_9" data-name="&lt;Compound Path&gt;" class="cls-1" d="M855.63,373.92,842.38,410h-6.45l-13.25-36.05h5.18l11.42,31.71,11.41-31.71Z" transform="translate(-268 -63.59)"/><path id="_Compound_Path_10" data-name="&lt;Compound Path&gt;" class="cls-1" d="M885.13,410h-24V373.92h24v4.26H866v9.88h19.14v4.26H866v13.39h19.14Z" transform="translate(-268 -63.59)"/></g><g id="_Group_6" data-name="&lt;Group&gt;"><path id="_Compound_Path_11" data-name="&lt;Compound Path&gt;" class="cls-1" d="M532.8,683.6a33.16,33.16,0,0,1-10.89-1.72,23.36,23.36,0,0,1-8.58-5.14,23,23,0,0,1-5.56-8.52,32.45,32.45,0,0,1-2-11.79,32.06,32.06,0,0,1,1.88-11.29,24,24,0,0,1,5.47-8.69,23.26,23.26,0,0,1,8.54-5.39,31.62,31.62,0,0,1,11.14-1.9,43.93,43.93,0,0,1,6,.37,42.58,42.58,0,0,1,4.95,1,34.47,34.47,0,0,1,4.32,1.49c1.29.55,2.42,1.07,3.39,1.53v12.71H550c-.66-.56-1.5-1.23-2.51-2A32.21,32.21,0,0,0,544,642a24.62,24.62,0,0,0-4.23-1.9,15.2,15.2,0,0,0-4.87-.77,16.56,16.56,0,0,0-5.47.9,13.42,13.42,0,0,0-4.8,3,14.42,14.42,0,0,0-3.39,5.3,21.82,21.82,0,0,0-1.3,8,21,21,0,0,0,1.41,8.22,14.19,14.19,0,0,0,3.53,5.19,13,13,0,0,0,4.83,2.76,17.73,17.73,0,0,0,5.26.82,16.9,16.9,0,0,0,4.92-.73,19,19,0,0,0,4.5-2,29.33,29.33,0,0,0,3.23-2.17c1-.77,1.81-1.43,2.45-2h1.42V679.1l-3.8,1.65a33.33,33.33,0,0,1-3.8,1.34,44.52,44.52,0,0,1-4.87,1.12A38.9,38.9,0,0,1,532.8,683.6Z" transform="translate(-268 -63.59)"/><path id="_Compound_Path_12" data-name="&lt;Compound Path&gt;" class="cls-1" d="M612.49,682.58H595.83l-14.4-19.21h-6.32v19.21H561.54v-52.4h22.88a53.32,53.32,0,0,1,8.07.53,17.36,17.36,0,0,1,6.32,2.29,13.7,13.7,0,0,1,4.74,4.55,12.92,12.92,0,0,1,1.76,7A15.49,15.49,0,0,1,602.6,654a20.53,20.53,0,0,1-7.77,6.09Zm-21.28-36.35a6.56,6.56,0,0,0-.82-3.38,5.44,5.44,0,0,0-2.81-2.22,10.48,10.48,0,0,0-3.23-.68c-1.23-.09-2.66-.13-4.3-.13h-4.94v14.12h4.2a39.64,39.64,0,0,0,5.47-.32,7.87,7.87,0,0,0,3.69-1.44,7.08,7.08,0,0,0,2.08-2.42A7.93,7.93,0,0,0,591.21,646.23Z" transform="translate(-268 -63.59)"/><path id="_Compound_Path_13" data-name="&lt;Compound Path&gt;" class="cls-1" d="M665,630.18l-19.5,32.13v20.27H631.85V662.94L612,630.18h15.53L639,650.39l11-20.21Z" transform="translate(-268 -63.59)"/><path id="_Compound_Path_14" data-name="&lt;Compound Path&gt;" class="cls-1" d="M715.74,646.72a19.65,19.65,0,0,1-1.25,6.88,15.34,15.34,0,0,1-3.55,5.65,21.93,21.93,0,0,1-7.05,4.68,25.74,25.74,0,0,1-9.68,1.58h-8.5v17.07H672.07v-52.4h22.46a36,36,0,0,1,8.5.86,20.2,20.2,0,0,1,6.13,2.59,14,14,0,0,1,4.89,5.31A16.7,16.7,0,0,1,715.74,646.72Zm-14.11.3a6.13,6.13,0,0,0-1.21-3.81,6.56,6.56,0,0,0-2.8-2.23,12.89,12.89,0,0,0-4.16-.93q-2-.09-5.4-.09h-2.35v15.66h3.91a32.27,32.27,0,0,0,5.74-.42,8.15,8.15,0,0,0,3.78-1.68,6.59,6.59,0,0,0,1.91-2.69A10.91,10.91,0,0,0,701.63,647Z" transform="translate(-268 -63.59)"/><path id="_Compound_Path_15" data-name="&lt;Compound Path&gt;" class="cls-1" d="M766.79,640.32H750.27v42.26H736.63V640.32H720.11V630.18h46.68Z" transform="translate(-268 -63.59)"/><path id="_Compound_Path_16" data-name="&lt;Compound Path&gt;" class="cls-1" d="M826.44,656.4q0,12.52-7.25,19.9t-20,7.37q-12.76,0-20-7.37t-7.24-19.9q0-12.64,7.24-20t20-7.34q12.71,0,20,7.34T826.44,656.4Zm-18.08,13.27a15.78,15.78,0,0,0,2.95-5.65,27.2,27.2,0,0,0,1-7.66,25.37,25.37,0,0,0-1.11-8,15.47,15.47,0,0,0-2.87-5.35,10.7,10.7,0,0,0-4.18-3.06,13.37,13.37,0,0,0-9.8,0,11.33,11.33,0,0,0-4.21,3,14.82,14.82,0,0,0-2.9,5.44,26.07,26.07,0,0,0-1.12,8,25.45,25.45,0,0,0,1.09,8,15.69,15.69,0,0,0,2.86,5.37,10.92,10.92,0,0,0,4.15,3.06,13.12,13.12,0,0,0,5,1,12.77,12.77,0,0,0,5-1A11.06,11.06,0,0,0,808.36,669.67Z" transform="translate(-268 -63.59)"/><path id="_Compound_Path_17" data-name="&lt;Compound Path&gt;" class="cls-1" d="M898.78,630.18,885,682.58h-7.92L866,639.08l-10.87,43.5h-7.75l-14-52.4h7.22l11.11,43.57,10.95-43.57h7.14l11.05,44,11-44Z" transform="translate(-268 -63.59)"/><path id="_Compound_Path_18" data-name="&lt;Compound Path&gt;" class="cls-1" d="M949.09,682.58h-7.5L936.4,668H913.53l-5.19,14.6H901.2l19.25-52.4h9.38ZM934.24,662,925,636.27,915.66,662Z" transform="translate(-268 -63.59)"/><path id="_Compound_Path_19" data-name="&lt;Compound Path&gt;" class="cls-1" d="M996.7,630.18l-19.26,52.4h-9.38l-19.26-52.4h7.54l16.59,46.1,16.59-46.1Z" transform="translate(-268 -63.59)"/><path id="_Compound_Path_20" data-name="&lt;Compound Path&gt;" class="cls-1" d="M1039.58,682.58h-34.85v-52.4h34.85v6.2h-27.82v14.35h27.82v6.2h-27.82v19.46h27.82Z" transform="translate(-268 -63.59)"/></g></svg>