<?xml version="1.0" encoding="utf-8"?>
<!-- Generator: Adobe Illustrator 22.0.0, SVG Export Plug-In . SVG Version: 6.00 Build 0)  -->
<svg version="1.1" id="Layer_1" xmlns="http://www.w3.org/2000/svg" xmlns:xlink="http://www.w3.org/1999/xlink" x="0px" y="0px"
	 viewBox="0 0 771.6 692.4" style="enable-background:new 0 0 771.6 692.4;" xml:space="preserve">
<title>cryptoblack</title>
<g id="_Group_">
	<path id="_Path_" d="M528.4,93.1c-5.6-1.1-10,2.5-11.2,5.5L467.9,222l-15.6-39.8c-1.6-4.7-6.1-12.7-16.2-12.7s-14.3,7.4-16.3,13
		l-15.6,39.2l-34.8-89.8c-1.6-4.7-6.8-13.2-16.1-13.2l0,0c-1.9,0-11.4,1.1-16.4,13.4l-9.3,24c-0.9,2.6-1.8,6.4,0.7,10.3
		c1.9,3,5.1,5,8.6,5.2c5.6,0.4,9.8-2.9,11.5-7.8l4.7-11.9l35.8,90.6c0.5,1.1,4.6,11,14.6,11.4c6.9,0,13.2-2.8,16.6-11.6l15.9-40.6
		l15.1,37.9c0,0,4.8,14.2,17.9,14.2c3.5,0,11.6-1.4,15.8-14l51.2-133.3C538.3,101.1,534.6,94.3,528.4,93.1z"/>
	<g id="_Group_2">
		<path id="_Path_2" d="M417.6,311.2c-71.4,0-129.5-57.5-129.5-128.2S346.2,54.7,417.6,54.7c42.8-0.1,82.8,20.9,107.1,56.1
			c3.1,4.5,1.9,10.6-2.5,13.7c0,0-0.1,0-0.1,0.1c-4.6,3.1-10.8,1.9-13.9-2.6c-20.5-29.8-54.4-47.5-90.5-47.5
			c-60.3,0-109.5,48.6-109.5,108.4s49.1,108.4,109.5,108.4c35.6,0,69-17.2,89.6-46.1c3.2-4.5,9.5-5.6,14-2.4
			c4.5,3.1,5.6,9.2,2.5,13.7c0,0,0,0.1-0.1,0.1C499.2,290.9,459.7,311.3,417.6,311.2z"/>
	</g>
</g>
<g id="_Group_3">
	<path id="_Path_3" d="M213.6,517.7c-3-0.6-6,0.9-7.3,3.6l-32.1,80.5l-10.2-26c-1.1-3.1-4-8.3-10.6-8.3c-6.6,0-9.3,4.8-10.7,8.5
		l-10.1,25.5l-22.7-58.7c-1.1-3.1-4.5-8.6-10.5-8.6l0,0c-1.2,0-7.4,0.7-10.7,8.8l-6.1,15.7c-0.9,2.2-0.8,4.7,0.5,6.7
		c1.2,2,3.3,3.3,5.6,3.4c3.4,0.3,6.5-1.8,7.5-5.1l3-7.8l23.4,59.1c0.3,0.7,3,7.1,9.5,7.4c4.5,0,8.6-1.8,10.9-7.5l10.4-26.5l9.9,24.8
		c0,0,3.1,9.3,11.7,9.3c2.3,0,7.6-0.9,10.3-9.2l33.4-87C220.1,522.9,217.6,518.4,213.6,517.7z"/>
	<g id="_Group_4">
		<path id="_Path_4" d="M141.3,660c-46.6,0-84.5-37.6-84.5-83.7c0-46.2,37.9-83.7,84.5-83.7c27.9,0,54.1,13.7,69.9,36.6
			c2,2.9,1.3,6.9-1.7,8.9c0,0,0,0-0.1,0c-3,2-7,1.3-9.1-1.7c-13.4-19.4-35.5-31-59.1-30.9c-39.4,0-71.4,31.8-71.4,70.8
			s32.1,70.8,71.4,70.8c23.2,0,45-11.2,58.5-30.1c2.1-2.9,6.2-3.6,9.1-1.6c2.9,2,3.7,6,1.6,9c0,0,0,0,0,0.1
			C194.5,646.8,168.8,660.1,141.3,660z"/>
	</g>
</g>
<g id="_Group_5">
	<path id="_Compound_Path_" d="M248.3,401.8c-2.5,0-5.1-0.4-7.5-1.2c-2.2-0.7-4.2-1.9-5.9-3.5c-1.7-1.6-3-3.6-3.8-5.9
		c-1.8-5.1-1.8-10.7-0.1-15.9c0.8-2.2,2.1-4.3,3.8-6c1.7-1.7,3.7-2.9,5.9-3.7c2.5-0.9,5-1.3,7.7-1.3c1.4,0,2.8,0.1,4.1,0.2
		c1.1,0.2,2.3,0.4,3.4,0.7c1,0.3,2,0.6,3,1c0.9,0.4,1.7,0.7,2.3,1.1v8.8h-1.1c-0.5-0.4-1-0.8-1.7-1.4c-0.8-0.6-1.5-1.1-2.4-1.6
		c-0.9-0.5-1.9-1-2.9-1.3c-1.1-0.4-2.2-0.5-3.3-0.5c-1.3,0-2.6,0.2-3.8,0.6c-1.2,0.4-2.4,1.1-3.3,2c-1,1-1.8,2.3-2.3,3.6
		c-0.6,1.8-0.9,3.6-0.9,5.5c0,1.9,0.3,3.9,1,5.7c0.5,1.4,1.4,2.6,2.4,3.6c1,0.9,2.1,1.5,3.3,1.9c1.2,0.4,2.4,0.6,3.6,0.6
		c1.1,0,2.3-0.2,3.4-0.5c1.1-0.3,2.1-0.8,3.1-1.4c0.8-0.4,1.5-0.9,2.2-1.5c0.7-0.5,1.2-1,1.7-1.4h1v8.6c-0.9,0.4-1.8,0.8-2.6,1.1
		c-0.8,0.4-1.7,0.7-2.6,0.9c-1.1,0.3-2.2,0.6-3.3,0.8C251.3,401.7,249.8,401.8,248.3,401.8z"/>
	<path id="_Compound_Path_2" d="M303.2,401.1h-11.5l-9.9-13.2h-4.3v13.2h-9.3v-36.1h15.8c1.9,0,3.7,0.1,5.5,0.4
		c1.5,0.2,3,0.8,4.3,1.6c1.3,0.8,2.4,1.8,3.3,3.1c0.8,1.5,1.3,3.1,1.2,4.8c0.1,2.3-0.6,4.6-1.9,6.5c-1.4,1.8-3.2,3.2-5.3,4.2
		L303.2,401.1z M288.5,376.1c0-0.8-0.2-1.6-0.6-2.3c-0.5-0.7-1.1-1.2-1.9-1.5c-0.7-0.3-1.5-0.4-2.2-0.5c-0.8-0.1-1.8-0.1-3-0.1h-3.4
		v9.7h2.9c1.3,0,2.5-0.1,3.8-0.2c0.9-0.1,1.8-0.5,2.5-1c0.6-0.4,1.1-1,1.4-1.7C288.4,377.8,288.6,377,288.5,376.1L288.5,376.1z"/>
	<path id="_Compound_Path_3" d="M339.3,365.1l-13.4,22.1v14h-9.4v-13.5l-13.6-22.5h10.7l7.8,13.9l7.6-13.9H339.3z"/>
	<path id="_Compound_Path_4" d="M374.2,376.4c0,1.6-0.3,3.2-0.9,4.7c-0.5,1.5-1.4,2.8-2.4,3.9c-1.4,1.4-3,2.5-4.8,3.2
		c-2.1,0.8-4.4,1.2-6.7,1.1h-5.8v11.8h-9.4v-36.1h15.4c2,0,3.9,0.2,5.9,0.6c1.5,0.4,2.9,1,4.2,1.8c1.4,0.9,2.6,2.2,3.4,3.7
		C373.9,372.7,374.3,374.6,374.2,376.4z M364.5,376.6c0-0.9-0.3-1.9-0.8-2.6c-0.5-0.7-1.2-1.2-1.9-1.5c-0.9-0.4-1.9-0.6-2.9-0.6
		c-0.9,0-2.2-0.1-3.7-0.1h-1.6v10.8h2.7c1.3,0,2.6-0.1,4-0.3c1-0.2,1.8-0.6,2.6-1.2c0.6-0.5,1-1.1,1.3-1.9
		C364.4,378.4,364.5,377.5,364.5,376.6z"/>
	<path id="_Compound_Path_5" d="M409.3,372H398v29.1h-9.4V372h-11.4v-7h32.1V372z"/>
	<path id="_Compound_Path_6" d="M450.4,383.1c0,5.7-1.7,10.3-5,13.7c-3.3,3.4-7.9,5.1-13.8,5.1c-5.9,0-10.4-1.7-13.8-5.1
		c-3.3-3.4-5-7.9-4.9-13.7c0-5.8,1.7-10.4,5-13.7s7.9-5,13.8-5c5.8,0,10.4,1.7,13.8,5S450.4,377.3,450.4,383.1z M437.9,392.3
		c0.9-1.1,1.6-2.5,2-3.9c0.5-1.7,0.7-3.5,0.7-5.3c0-1.9-0.2-3.7-0.8-5.5c-0.4-1.3-1.1-2.6-2-3.7c-0.8-0.9-1.8-1.7-2.9-2.1
		c-1.1-0.4-2.2-0.7-3.4-0.6c-1.1,0-2.3,0.2-3.4,0.6c-1.1,0.5-2.1,1.2-2.9,2.1c-0.9,1.1-1.6,2.4-2,3.7c-1,3.6-1,7.4,0,11
		c0.4,1.3,1.1,2.6,2,3.7c0.8,0.9,1.8,1.6,2.9,2.1c1.1,0.5,2.3,0.7,3.5,0.7c1.2,0,2.4-0.2,3.4-0.7
		C436.2,393.9,437.2,393.2,437.9,392.3L437.9,392.3z"/>
	<path id="_Compound_Path_7" d="M500.1,365.1l-9.5,36.1h-5.5l-7.6-30l-7.5,30h-5.3l-9.6-36h5l7.7,30l7.5-30h4.9l7.6,30.3l7.6-30.3
		L500.1,365.1z"/>
	<path id="_Compound_Path_8" d="M534.7,401.1h-5.2l-3.6-10h-15.7l-3.6,10h-4.9l13.2-36h6.5L534.7,401.1z M524.5,386.9l-6.4-17.7
		l-6.4,17.7H524.5z"/>
	<path id="_Compound_Path_9" d="M567.5,365.1l-13.2,36.1h-6.5l-13.2-36h5.2l11.4,31.7l11.4-31.7L567.5,365.1z"/>
	<path id="_Compound_Path_10" d="M597,401.1h-24v-36.1h24v4.3h-19.1v9.9H597v4.3h-19.1v13.4H597L597,401.1z"/>
</g>
<g id="_Group_6">
	<path id="_Compound_Path_11" d="M278.2,599.5c-3.1,0-6.2-0.5-9.1-1.4c-2.7-0.9-5.1-2.4-7.2-4.3c-2.1-2-3.6-4.4-4.6-7.1
		c-1.2-3.2-1.7-6.5-1.7-9.9c0-3.2,0.5-6.4,1.6-9.4c1-2.7,2.5-5.2,4.6-7.3c2-2,4.5-3.5,7.1-4.5c3-1.1,6.1-1.6,9.3-1.6
		c1.7,0,3.4,0.1,5,0.3c1.4,0.2,2.8,0.5,4.1,0.8c1.2,0.3,2.4,0.8,3.6,1.2c1.1,0.5,2,0.9,2.8,1.3v10.6h-1.2c-0.6-0.5-1.3-1-2.1-1.7
		c-0.9-0.7-1.9-1.3-2.9-1.9c-1.1-0.6-2.3-1.2-3.5-1.6c-1.3-0.4-2.7-0.7-4.1-0.6c-1.6,0-3.1,0.2-4.6,0.8c-1.5,0.5-2.9,1.4-4,2.5
		c-1.3,1.3-2.2,2.8-2.8,4.4c-0.8,2.1-1.1,4.4-1.1,6.7c-0.1,2.3,0.3,4.7,1.2,6.9c0.6,1.6,1.7,3.1,3,4.3c1.2,1.1,2.5,1.8,4,2.3
		c1.4,0.4,2.9,0.7,4.4,0.7c1.4,0,2.8-0.2,4.1-0.6c1.3-0.4,2.6-1,3.8-1.7c0.9-0.5,1.8-1.2,2.7-1.8c0.8-0.6,1.5-1.2,2-1.7h1.2v10.4
		l-3.2,1.4c-1,0.4-2.1,0.8-3.2,1.1c-1.3,0.4-2.7,0.7-4.1,0.9C281.6,599.4,279.9,599.5,278.2,599.5z"/>
	<path id="_Compound_Path_12" d="M344.8,598.7h-13.9l-12-16.1h-5.3v16.1h-11.3v-43.8h19.1c2.3,0,4.5,0.1,6.7,0.4
		c1.9,0.3,3.7,0.9,5.3,1.9c1.6,0.9,3,2.2,4,3.8c1,1.8,1.5,3.8,1.5,5.9c0.1,2.8-0.7,5.6-2.3,7.9c-1.7,2.2-3.9,3.9-6.5,5.1
		L344.8,598.7z M327,568.3c0-1-0.2-2-0.7-2.8c-0.6-0.9-1.4-1.5-2.3-1.9c-0.9-0.3-1.8-0.5-2.7-0.6c-1-0.1-2.2-0.1-3.6-0.1h-4.1v11.8
		h3.5c1.5,0,3.1-0.1,4.6-0.3c1.1-0.1,2.2-0.5,3.1-1.2c0.7-0.5,1.3-1.2,1.7-2C326.8,570.3,327,569.3,327,568.3L327,568.3z"/>
	<path id="_Compound_Path_13" d="M388.7,554.8l-16.3,26.9v16.9H361v-16.4l-16.6-27.4h13l9.6,16.9l9.2-16.9H388.7z"/>
	<path id="_Compound_Path_14" d="M431.1,568.7c0,2-0.4,3.9-1,5.8c-0.6,1.8-1.6,3.4-3,4.7c-1.7,1.7-3.7,3-5.9,3.9
		c-2.6,1-5.3,1.4-8.1,1.3H406v14.3h-11.4v-43.8h18.8c2.4,0,4.8,0.2,7.1,0.7c1.8,0.4,3.5,1.2,5.1,2.2c1.7,1.1,3.1,2.6,4.1,4.4
		C430.7,564.2,431.2,566.4,431.1,568.7z M419.3,568.9c0-1.1-0.3-2.3-1-3.2c-0.6-0.8-1.4-1.5-2.3-1.9c-1.1-0.5-2.3-0.7-3.5-0.8
		c-1.1-0.1-2.6-0.1-4.5-0.1h-2v13.1h3.3c1.6,0,3.2-0.1,4.8-0.4c1.2-0.2,2.2-0.7,3.2-1.4c0.7-0.6,1.3-1.4,1.6-2.2
		C419.2,571.1,419.3,570,419.3,568.9L419.3,568.9z"/>
	<path id="_Compound_Path_15" d="M473.8,563.3H460v35.3h-11.4v-35.3h-13.8v-8.5h39V563.3z"/>
	<path id="_Compound_Path_16" d="M523.7,576.8c0,7-2,12.5-6.1,16.6c-4,4.1-9.6,6.2-16.7,6.2c-7.1,0-12.7-2.1-16.7-6.2
		c-4-4.1-6.1-9.7-6.1-16.6c0-7,2-12.6,6.1-16.7c4-4.1,9.6-6.1,16.7-6.1c7.1,0,12.7,2,16.7,6.1C521.7,564.1,523.7,569.7,523.7,576.8z
		 M508.5,587.9c1.1-1.4,2-3,2.5-4.7c0.6-2.1,0.9-4.2,0.8-6.4c0-2.3-0.3-4.5-0.9-6.7c-0.5-1.6-1.3-3.2-2.4-4.5
		c-0.9-1.1-2.1-2-3.5-2.6c-2.6-1-5.6-1-8.2,0c-1.4,0.6-2.6,1.4-3.5,2.5c-1.1,1.3-1.9,2.9-2.4,4.5c-0.7,2.2-1,4.4-0.9,6.7
		c-0.1,2.3,0.3,4.5,0.9,6.7c0.5,1.6,1.3,3.2,2.4,4.5c0.9,1.1,2.1,2,3.5,2.6c1.3,0.5,2.7,0.8,4.2,0.8c1.4,0,2.9-0.3,4.2-0.8
		C506.4,589.9,507.6,589,508.5,587.9L508.5,587.9z"/>
	<path id="_Compound_Path_17" d="M584.1,554.8l-11.5,43.8H566l-9.3-36.4l-9.1,36.4h-6.5l-11.7-43.8h6l9.3,36.4l9.2-36.4h6l9.2,36.8
		l9.2-36.8H584.1z"/>
	<path id="_Compound_Path_18" d="M626.2,598.7h-6.3l-4.3-12.2h-19.1l-4.3,12.2h-6l16.1-43.8h7.8L626.2,598.7z M613.8,581.4
		l-7.7-21.5l-7.8,21.5H613.8z"/>
	<path id="_Compound_Path_19" d="M666,554.8l-16.1,43.8H642l-16.1-43.8h6.3l13.9,38.5l13.9-38.5H666z"/>
	<path id="_Compound_Path_20" d="M701.8,598.7h-29.1v-43.8h29.1v5.2h-23.3v12h23.3v5.2h-23.3v16.3h23.3V598.7z"/>
</g>
</svg>
