<?xml version="1.0" encoding="utf-8"?>
<!-- Generator: Adobe Illustrator 22.0.0, SVG Export Plug-In . SVG Version: 6.00 Build 0)  -->
<svg version="1.1" id="Layer_1" xmlns="http://www.w3.org/2000/svg" xmlns:xlink="http://www.w3.org/1999/xlink" x="0px" y="0px"
	 viewBox="0 0 771.6 692.4" style="enable-background:new 0 0 771.6 692.4;" xml:space="preserve">
<style type="text/css">
	.st0{fill:#686868;}
</style>
<title>Untitled-2</title>
<g id="_Group_">
	<path id="_Path_" class="st0" d="M542.5,87.5c-5.6-1.1-10,2.5-11.2,5.5L482,216.3l-15.6-39.8c-1.6-4.7-6.1-12.7-16.2-12.7
		s-14.3,7.4-16.3,13L418.3,216l-34.8-89.8c-1.6-4.7-6.8-13.2-16.1-13.2l0,0c-1.9,0-11.4,1.1-16.4,13.4l-9.3,24
		c-0.9,2.6-1.8,6.4,0.7,10.3c1.9,3,5.1,5,8.6,5.2c5.6,0.4,9.8-2.9,11.5-7.8l4.7-11.9l35.8,90.6c0.5,1.1,4.6,11,14.6,11.4
		c6.9,0,13.2-2.8,16.6-11.6l15.9-40.6l15.1,37.9c0,0,4.8,14.2,17.9,14.2c3.5,0,11.6-1.4,15.8-14l51.2-133.3
		C552.3,95.4,548.6,88.6,542.5,87.5z"/>
	<g id="_Group_2">
		<path id="_Path_2" class="st0" d="M431.7,305.6c-71.4,0-129.5-57.5-129.5-128.2S360.3,49.1,431.7,49.1
			c42.8-0.1,82.8,20.9,107.1,56.1c3.1,4.5,1.9,10.6-2.5,13.7c0,0-0.1,0-0.1,0.1c-4.6,3.1-10.8,1.9-13.9-2.6
			c-20.5-29.8-54.4-47.5-90.5-47.5c-60.3,0-109.5,48.6-109.5,108.4s49.1,108.4,109.5,108.4c35.6,0,69-17.2,89.6-46.1
			c3.2-4.5,9.5-5.6,14-2.4c4.5,3.1,5.6,9.2,2.5,13.7c0,0,0,0.1-0.1,0.1C513.3,285.3,473.8,305.6,431.7,305.6z"/>
	</g>
</g>
<g id="_Group_3">
	<path id="_Path_3" class="st0" d="M212.2,519.2c-3-0.6-6.1,0.9-7.5,3.7L172,604.8l-10.3-26.4c-1.1-3.1-4-8.4-10.7-8.4
		c-6.7,0-9.5,4.9-10.9,8.6l-10.3,26l-23.1-59.6c-1.1-3.1-4.5-8.8-10.7-8.8l0,0c-1.3,0-7.5,0.7-10.9,8.9l-6.2,16
		c-1,2.2-0.8,4.7,0.5,6.8c1.2,2,3.4,3.3,5.7,3.5c3.4,0.3,6.6-1.9,7.6-5.1l3.1-7.9l23.8,60.1c0.3,0.7,3,7.3,9.7,7.5
		c4.6,0,8.8-1.9,11-7.6l10.5-26.9l10,25.2c0,0,3.2,9.4,11.9,9.4c2.3,0,7.7-0.9,10.5-9.3l34-88.5C218.7,524.5,216.3,520,212.2,519.2z
		"/>
	<g id="_Group_4">
		<path id="_Path_4" class="st0" d="M138.7,664c-47.4,0-85.9-38.2-85.9-85.1c0-46.9,38.5-85.1,85.9-85.1c28.4,0,55,13.9,71.1,37.3
			c2,3,1.3,7-1.7,9.1c0,0,0,0-0.1,0c-3,2.1-7.1,1.3-9.2-1.7c-13.6-19.7-36.1-31.5-60.1-31.4C98.6,507,66,539.3,66,579
			s32.6,71.9,72.6,71.9c23.6,0,45.8-11.4,59.5-30.6c2.1-3,6.3-3.7,9.3-1.6c3,2.1,3.7,6.1,1.7,9.1c0,0,0,0,0,0.1
			C192.8,650.6,166.6,664,138.7,664z"/>
	</g>
</g>
<g id="_Group_5">
	<path id="_Compound_Path_" class="st0" d="M262.4,396.2c-2.5,0-5.1-0.4-7.5-1.2c-2.2-0.7-4.2-1.9-5.9-3.5c-1.7-1.6-3-3.6-3.8-5.9
		c-1.8-5.1-1.8-10.7-0.1-15.9c0.8-2.2,2.1-4.3,3.8-6c1.7-1.7,3.7-2.9,5.9-3.7c2.5-0.9,5-1.3,7.7-1.3c1.4,0,2.8,0.1,4.1,0.2
		c1.1,0.2,2.3,0.4,3.4,0.7c1,0.3,2,0.6,3,1c0.9,0.4,1.7,0.7,2.3,1.1v8.8h-1.1c-0.5-0.4-1-0.8-1.7-1.4c-0.8-0.6-1.5-1.1-2.4-1.6
		c-0.9-0.5-1.9-1-2.9-1.3c-1.1-0.4-2.2-0.5-3.3-0.5c-1.3,0-2.6,0.2-3.8,0.6c-1.2,0.4-2.4,1.1-3.3,2c-1,1-1.8,2.3-2.3,3.6
		c-0.6,1.8-0.9,3.6-0.9,5.5c0,1.9,0.3,3.9,1,5.7c0.5,1.4,1.4,2.6,2.4,3.6c1,0.9,2.1,1.5,3.3,1.9c1.2,0.4,2.4,0.6,3.6,0.6
		c1.1,0,2.3-0.2,3.4-0.5c1.1-0.3,2.1-0.8,3.1-1.4c0.8-0.4,1.5-0.9,2.2-1.5c0.7-0.5,1.2-1,1.7-1.4h1v8.6c-0.9,0.4-1.8,0.8-2.6,1.1
		c-0.8,0.4-1.7,0.7-2.6,0.9c-1.1,0.3-2.2,0.6-3.3,0.8C265.3,396.1,263.9,396.2,262.4,396.2z"/>
	<path id="_Compound_Path_2" class="st0" d="M317.2,395.5h-11.5l-9.9-13.2h-4.3v13.2h-9.3v-36.1h15.8c1.9,0,3.7,0.1,5.5,0.4
		c1.5,0.2,3,0.8,4.3,1.6c1.3,0.8,2.4,1.8,3.3,3.1c0.8,1.5,1.3,3.1,1.2,4.8c0.1,2.3-0.6,4.6-1.9,6.5c-1.4,1.8-3.2,3.2-5.3,4.2
		L317.2,395.5z M302.6,370.5c0-0.8-0.2-1.6-0.6-2.3c-0.5-0.7-1.1-1.2-1.9-1.5c-0.7-0.3-1.5-0.4-2.2-0.5c-0.8-0.1-1.8-0.1-3-0.1h-3.4
		v9.7h2.9c1.3,0,2.5-0.1,3.8-0.2c0.9-0.1,1.8-0.5,2.5-1c0.6-0.4,1.1-1,1.4-1.7C302.4,372.1,302.6,371.3,302.6,370.5L302.6,370.5z"/>
	<path id="_Compound_Path_3" class="st0" d="M353.3,359.4l-13.4,22.1v14h-9.4v-13.5l-13.6-22.5h10.7l7.8,13.9l7.6-13.9H353.3z"/>
	<path id="_Compound_Path_4" class="st0" d="M388.2,370.8c0,1.6-0.3,3.2-0.9,4.7c-0.5,1.5-1.4,2.8-2.4,3.9c-1.4,1.4-3,2.5-4.8,3.2
		c-2.1,0.8-4.4,1.2-6.7,1.1h-5.8v11.8h-9.4v-36.1h15.4c2,0,3.9,0.2,5.9,0.6c1.5,0.4,2.9,1,4.2,1.8c1.4,0.9,2.6,2.2,3.4,3.7
		C387.9,367.1,388.3,368.9,388.2,370.8z M378.5,371c0-0.9-0.3-1.9-0.8-2.6c-0.5-0.7-1.2-1.2-1.9-1.5c-0.9-0.4-1.9-0.6-2.9-0.6
		c-0.9,0-2.2-0.1-3.7-0.1h-1.6v10.8h2.7c1.3,0,2.6-0.1,4-0.3c1-0.2,1.8-0.6,2.6-1.2c0.6-0.5,1-1.1,1.3-1.9
		C378.4,372.8,378.6,371.9,378.5,371z"/>
	<path id="_Compound_Path_5" class="st0" d="M423.4,366.4H412v29.1h-9.4v-29.1h-11.4v-7h32.1V366.4z"/>
	<path id="_Compound_Path_6" class="st0" d="M464.4,377.5c0,5.7-1.7,10.3-5,13.7c-3.3,3.4-7.9,5.1-13.8,5.1
		c-5.9,0-10.4-1.7-13.8-5.1c-3.3-3.4-5-7.9-4.9-13.7c0-5.8,1.7-10.4,5-13.7s7.9-5,13.8-5c5.8,0,10.4,1.7,13.8,5
		S464.4,371.7,464.4,377.5z M452,386.6c0.9-1.1,1.6-2.5,2-3.9c0.5-1.7,0.7-3.5,0.7-5.3c0-1.9-0.2-3.7-0.8-5.5
		c-0.4-1.3-1.1-2.6-2-3.7c-0.8-0.9-1.8-1.7-2.9-2.1c-1.1-0.4-2.2-0.7-3.4-0.6c-1.1,0-2.3,0.2-3.4,0.6c-1.1,0.5-2.1,1.2-2.9,2.1
		c-0.9,1.1-1.6,2.4-2,3.7c-1,3.6-1,7.4,0,11c0.4,1.3,1.1,2.6,2,3.7c0.8,0.9,1.8,1.6,2.9,2.1c1.1,0.5,2.3,0.7,3.5,0.7
		c1.2,0,2.4-0.2,3.4-0.7C450.2,388.3,451.2,387.5,452,386.6L452,386.6z"/>
	<path id="_Compound_Path_7" class="st0" d="M514.2,359.4l-9.5,36.1h-5.5l-7.6-30l-7.5,30h-5.3l-9.6-36h5l7.7,30l7.5-30h4.9
		l7.6,30.3l7.6-30.3L514.2,359.4z"/>
	<path id="_Compound_Path_8" class="st0" d="M548.8,395.5h-5.2l-3.6-10h-15.7l-3.6,10h-4.9l13.2-36h6.5L548.8,395.5z M538.6,381.3
		l-6.4-17.7l-6.4,17.7H538.6z"/>
	<path id="_Compound_Path_9" class="st0" d="M581.5,359.4l-13.2,36.1h-6.5l-13.2-36h5.2l11.4,31.7l11.4-31.7L581.5,359.4z"/>
	<path id="_Compound_Path_10" class="st0" d="M611,395.5h-24v-36.1h24v4.3h-19.1v9.9h19.1v4.3h-19.1v13.4h19.1L611,395.5z"/>
</g>
<g id="_Group_6">
	<path id="_Compound_Path_11" class="st0" d="M277.8,602.4c-3.1,0-6.3-0.5-9.3-1.5c-2.7-0.9-5.2-2.4-7.3-4.4c-2.1-2-3.7-4.5-4.7-7.2
		c-1.2-3.2-1.8-6.6-1.7-10c0-3.3,0.5-6.5,1.6-9.6c1-2.8,2.6-5.3,4.6-7.4c2.1-2,4.5-3.6,7.3-4.6c3-1.1,6.2-1.6,9.5-1.6
		c1.7,0,3.4,0.1,5.1,0.3c1.4,0.2,2.8,0.5,4.2,0.8c1.3,0.3,2.5,0.8,3.7,1.3c1.1,0.5,2.1,0.9,2.9,1.3v10.8h-1.2
		c-0.6-0.5-1.3-1-2.1-1.7c-0.9-0.7-1.9-1.3-3-1.9c-1.1-0.7-2.3-1.2-3.6-1.6c-1.3-0.4-2.7-0.7-4.1-0.7c-1.6,0-3.2,0.3-4.6,0.8
		c-1.5,0.6-2.9,1.4-4.1,2.5c-1.3,1.3-2.3,2.8-2.9,4.5c-0.8,2.2-1.2,4.5-1.1,6.8c-0.1,2.4,0.3,4.8,1.2,7c0.7,1.7,1.7,3.2,3,4.4
		c1.2,1.1,2.6,1.9,4.1,2.3c1.4,0.5,3,0.7,4.5,0.7c1.4,0,2.8-0.2,4.2-0.6c1.3-0.4,2.6-1,3.8-1.7c1-0.6,1.9-1.2,2.7-1.8
		c0.8-0.7,1.5-1.2,2.1-1.7h1.2v10.6l-3.2,1.4c-1.1,0.4-2.1,0.8-3.2,1.1c-1.4,0.4-2.7,0.7-4.1,1C281.3,602.4,279.6,602.5,277.8,602.4
		z"/>
	<path id="_Compound_Path_12" class="st0" d="M345.5,601.6h-14.2l-12.2-16.3h-5.4v16.3h-11.5V557h19.4c2.3,0,4.6,0.1,6.9,0.5
		c1.9,0.3,3.7,1,5.4,1.9c1.6,0.9,3,2.3,4,3.9c1.1,1.8,1.6,3.9,1.5,5.9c0.1,2.9-0.7,5.7-2.3,8c-1.7,2.2-4,4-6.6,5.2L345.5,601.6z
		 M327.4,570.7c0-1-0.2-2-0.7-2.9c-0.6-0.9-1.4-1.5-2.4-1.9c-0.9-0.3-1.8-0.5-2.7-0.6c-1-0.1-2.3-0.1-3.7-0.1h-4.2v12h3.6
		c1.6,0,3.1-0.1,4.6-0.3c1.1-0.1,2.2-0.6,3.1-1.2c0.7-0.5,1.3-1.2,1.8-2.1C327.3,572.7,327.5,571.7,327.4,570.7L327.4,570.7z"/>
	<path id="_Compound_Path_13" class="st0" d="M390.2,557l-16.6,27.3v17.2H362v-16.7L345.1,557h13.2l9.7,17.2l9.3-17.2H390.2z"/>
	<path id="_Compound_Path_14" class="st0" d="M433.3,571.1c0,2-0.4,4-1.1,5.8c-0.6,1.8-1.7,3.4-3,4.8c-1.7,1.7-3.8,3.1-6,4
		c-2.6,1-5.4,1.4-8.2,1.3h-7.2v14.5h-11.6V557h19.1c2.4,0,4.9,0.2,7.2,0.7c1.8,0.4,3.6,1.2,5.2,2.2c1.8,1.1,3.2,2.7,4.2,4.5
		C432.9,566.5,433.4,568.8,433.3,571.1z M421.3,571.4c0-1.2-0.3-2.3-1-3.2c-0.6-0.8-1.4-1.5-2.4-1.9c-1.1-0.5-2.3-0.7-3.5-0.8
		c-1.1-0.1-2.7-0.1-4.6-0.1h-2v13.3h3.3c1.6,0,3.3-0.1,4.9-0.4c1.2-0.2,2.3-0.7,3.2-1.4c0.7-0.6,1.3-1.4,1.6-2.3
		C421.2,573.5,421.3,572.4,421.3,571.4L421.3,571.4z"/>
	<path id="_Compound_Path_15" class="st0" d="M476.7,565.7h-14v35.9H451v-35.9h-14V557h39.7V565.7z"/>
	<path id="_Compound_Path_16" class="st0" d="M527.4,579.3c0,7.1-2.1,12.7-6.2,16.9s-9.8,6.3-17,6.3c-7.2,0-12.9-2.1-17-6.3
		c-4.1-4.2-6.2-9.8-6.2-16.9c0-7.2,2.1-12.8,6.2-17c4.1-4.2,9.8-6.2,17-6.2c7.2,0,12.9,2.1,17,6.2
		C525.3,566.5,527.4,572.2,527.4,579.3z M512,590.6c1.2-1.4,2-3,2.5-4.8c0.6-2.1,0.9-4.3,0.8-6.5c0.1-2.3-0.3-4.6-0.9-6.8
		c-0.5-1.7-1.3-3.2-2.4-4.5c-1-1.1-2.2-2-3.6-2.6c-2.7-1.1-5.7-1.1-8.3,0c-1.4,0.6-2.6,1.4-3.6,2.5c-1.1,1.4-2,2.9-2.5,4.6
		c-0.7,2.2-1,4.5-1,6.8c-0.1,2.3,0.3,4.6,0.9,6.8c0.5,1.7,1.3,3.2,2.4,4.6c1,1.1,2.2,2,3.5,2.6c1.3,0.6,2.8,0.8,4.2,0.8
		c1.5,0,2.9-0.3,4.2-0.8C509.9,592.7,511.1,591.8,512,590.6L512,590.6z"/>
	<path id="_Compound_Path_17" class="st0" d="M588.9,557l-11.7,44.5h-6.7l-9.4-37l-9.2,37h-6.6L533.3,557h6.1l9.4,37l9.3-37h6.1
		l9.4,37.4L583,557H588.9z"/>
	<path id="_Compound_Path_18" class="st0" d="M631.6,601.6h-6.4l-4.4-12.4h-19.4l-4.4,12.4h-6.1l16.4-44.5h8L631.6,601.6z
		 M619,584.1l-7.9-21.9l-7.9,21.9H619z"/>
	<path id="_Compound_Path_19" class="st0" d="M672.1,557l-16.4,44.5h-8L631.4,557h6.4l14.1,39.2L666,557H672.1z"/>
	<path id="_Compound_Path_20" class="st0" d="M708.5,601.6h-29.6V557h29.6v5.3h-23.6v12.2h23.6v5.3h-23.6v16.5h23.6V601.6z"/>
</g>
</svg>
